<!DOCTYPE svg PUBLIC "-//W3C//DTD SVG 20010904//EN" "http://www.w3.org/TR/2001/REC-SVG-20010904/DTD/svg10.dtd">
<svg version="1.0" xmlns="http://www.w3.org/2000/svg" width="692px" height="673px" viewBox="0 0 6920 6730" preserveAspectRatio="xMidYMid meet">
<g id="layer101" fill="#3a3a3a" stroke="none">
 <path d="M0 3365 l0 -3365 3460 0 3460 0 0 3365 0 3365 -3460 0 -3460 0 0 -3365z"/>
 </g>
<g id="layer102" fill="#f1f1f1" stroke="none">
 <path d="M0 5123 l0 -1607 56 95 c30 51 69 108 85 125 19 20 32 45 35 69 2 20 17 56 33 79 44 64 58 97 65 150 4 27 11 57 17 67 18 34 153 135 199 148 25 7 74 30 110 52 36 21 87 46 112 55 65 22 73 34 59 88 -14 57 -14 122 0 203 9 52 8 71 -5 110 -18 51 -21 119 -7 128 5 3 49 6 98 6 105 1 120 7 103 39 -7 13 -9 39 -5 69 5 39 3 50 -14 65 -11 10 -23 34 -27 52 -7 38 -14 40 -95 23 -46 -10 -56 -9 -93 10 -26 12 -60 20 -89 19 -68 -1 -105 18 -123 63 -14 34 -18 37 -47 32 -24 -3 -41 2 -67 21 -19 14 -49 32 -65 40 -48 23 -65 49 -76 117 -6 35 -21 82 -34 105 -23 40 -41 116 -52 220 -6 56 8 94 34 94 15 0 15 2 0 18 -19 21 -22 43 -6 59 7 7 21 5 47 -8 22 -12 57 -19 89 -19 46 0 53 -3 53 -20 0 -13 9 -22 27 -26 21 -6 31 -2 48 19 23 30 35 34 35 12 0 -8 10 -19 21 -26 32 -16 169 -13 235 6 54 16 60 15 95 -1 37 -16 40 -16 88 5 65 28 81 27 81 -4 0 -14 8 -29 21 -36 32 -17 133 -12 244 12 55 11 126 26 158 33 40 8 64 19 76 34 22 30 50 20 48 -16 l-2 -27 101 -5 c65 -3 107 -10 118 -19 12 -10 29 -12 69 -6 98 16 283 3 352 -24 45 -18 104 -4 148 35 24 23 47 34 67 34 20 0 35 8 46 25 17 27 16 44 -12 116 -22 57 -15 79 26 79 17 0 43 6 58 14 15 7 50 17 77 20 71 10 82 18 61 47 -22 32 -20 57 10 109 15 25 33 63 40 84 18 50 79 142 99 150 9 3 15 18 15 41 0 46 32 79 68 71 15 -4 53 -9 84 -13 52 -5 59 -4 78 18 11 13 25 34 30 47 16 39 44 26 90 -40 24 -35 50 -69 58 -75 9 -8 43 -13 79 -13 85 0 103 -17 103 -99 0 -33 3 -66 6 -75 7 -19 34 -21 34 -3 0 9 37 13 152 15 108 2 160 7 178 17 71 40 96 47 148 43 43 -4 59 -11 86 -37 38 -37 148 -81 201 -81 31 0 35 3 35 25 0 52 104 62 128 13 10 -21 20 -28 43 -28 16 0 38 -9 49 -20 21 -21 19 -40 -3 -40 -7 0 -17 -15 -23 -34 -9 -30 -8 -38 10 -55 l20 -21 -23 -52 c-12 -29 -33 -86 -46 -127 -18 -56 -34 -84 -67 -118 -42 -42 -43 -46 -48 -120 -6 -94 -15 -102 -92 -84 -48 12 -58 11 -87 -3 -37 -20 -88 -94 -97 -144 -5 -25 -1 -47 15 -80 30 -62 37 -128 18 -174 -18 -44 -49 -55 -102 -38 -32 11 -40 9 -78 -14 -23 -14 -62 -44 -86 -66 -41 -38 -43 -42 -37 -81 12 -73 54 -140 146 -229 66 -64 90 -94 95 -120 11 -53 28 -79 93 -147 42 -46 66 -63 85 -63 31 0 57 24 57 53 0 12 9 41 20 64 24 55 56 64 117 34 24 -11 51 -21 60 -21 8 0 50 -16 93 -35 67 -30 88 -35 154 -35 43 0 86 -5 96 -10 11 -6 26 -33 35 -63 11 -38 28 -66 59 -96 35 -35 52 -65 86 -152 45 -118 79 -162 130 -172 17 -4 59 -20 93 -37 46 -22 68 -39 79 -63 9 -17 37 -56 62 -86 64 -74 73 -95 92 -208 17 -110 37 -149 92 -186 39 -25 120 -57 147 -57 22 0 28 -18 26 -80 -1 -42 3 -63 18 -81 10 -13 28 -44 40 -69 12 -25 36 -54 54 -65 17 -11 41 -38 52 -60 11 -22 37 -56 58 -77 40 -39 43 -55 26 -122 -9 -36 -8 -49 5 -74 22 -42 20 -63 -9 -132 -28 -68 -26 -79 27 -137 21 -24 38 -47 38 -53 0 -5 15 -10 33 -10 18 0 41 -6 52 -14 11 -7 46 -21 77 -30 98 -28 113 -97 35 -159 -39 -30 -46 -32 -125 -32 -71 0 -86 -3 -98 -19 -8 -11 -12 -27 -9 -35 12 -39 12 -91 1 -107 -10 -13 -16 -14 -34 -5 -12 6 -22 15 -22 20 0 4 -24 7 -52 7 l-53 -1 -14 -44 c-10 -30 -23 -49 -47 -63 -21 -12 -35 -30 -39 -49 -4 -16 -15 -34 -26 -39 -27 -15 -24 -34 11 -73 40 -46 39 -79 -5 -124 -47 -49 -45 -72 15 -138 27 -30 50 -65 50 -76 0 -20 -4 -21 -53 -15 -66 9 -77 -2 -78 -74 -1 -28 -7 -56 -13 -61 -6 -5 -18 -15 -27 -22 -9 -7 -19 -29 -22 -49 -5 -34 -2 -40 31 -68 62 -51 135 -73 222 -66 41 3 100 10 130 16 30 6 81 15 112 20 31 4 76 19 100 33 37 21 57 25 136 26 l93 1 17 -31 c40 -72 49 -79 111 -79 45 0 62 -4 76 -20 15 -17 30 -20 78 -19 54 2 63 -1 84 -25 13 -15 23 -36 23 -47 0 -14 9 -21 29 -25 16 -3 46 -23 66 -44 35 -36 37 -42 32 -82 -4 -31 -1 -54 13 -83 18 -39 18 25 19 2943 l1 2982 -3460 0 -3460 0 0 -1607z"/>
 <path d="M3095 6657 c-36 -49 -59 -55 -148 -37 -70 14 -87 4 -87 -46 0 -26 -9 -44 -39 -75 -22 -22 -49 -61 -61 -87 -11 -26 -35 -75 -52 -108 l-32 -62 19 -41 c11 -25 15 -45 9 -51 -5 -4 -41 -15 -80 -23 -39 -8 -80 -20 -92 -26 -11 -6 -32 -11 -46 -11 -32 0 -33 -16 -5 -77 35 -76 15 -129 -53 -140 -26 -4 -51 -17 -71 -38 -36 -36 -97 -50 -150 -33 -18 5 -61 14 -97 19 -36 4 -87 12 -114 15 -28 4 -77 1 -118 -6 -64 -12 -74 -12 -100 3 -22 12 -53 17 -117 17 -72 0 -91 3 -104 18 -10 10 -17 25 -17 32 0 10 -4 9 -13 -3 -12 -17 -60 -29 -275 -72 -141 -28 -236 -16 -248 32 -4 13 -7 23 -8 23 0 0 -25 -9 -55 -21 -52 -19 -57 -20 -91 -4 -34 15 -41 15 -90 1 -78 -23 -221 -22 -251 3 -23 18 -24 18 -49 0 -33 -25 -90 -17 -90 12 0 15 -8 19 -40 19 -22 0 -57 7 -77 15 -47 20 -53 12 -18 -25 29 -30 27 -34 -20 -42 -17 -3 -20 -11 -19 -58 1 -92 15 -163 41 -210 13 -25 31 -78 38 -119 15 -74 28 -101 49 -101 7 0 35 -16 62 -36 38 -27 56 -34 80 -30 38 5 47 0 63 -42 18 -42 38 -52 114 -56 40 -2 73 -10 91 -21 25 -16 33 -17 96 -5 83 16 100 11 100 -30 0 -20 9 -38 26 -53 24 -20 25 -26 19 -75 -5 -40 -3 -59 9 -77 15 -23 15 -25 -6 -36 -12 -6 -62 -13 -112 -16 -50 -2 -93 -9 -97 -15 -7 -11 -4 -31 17 -98 11 -38 12 -61 1 -145 -8 -61 -10 -114 -5 -135 21 -87 21 -87 -2 -108 -13 -12 -42 -28 -65 -36 -24 -8 -73 -32 -110 -54 -36 -22 -88 -46 -114 -53 -36 -9 -66 -28 -120 -78 -70 -64 -72 -68 -81 -127 -6 -46 -19 -79 -54 -135 -25 -40 -46 -86 -46 -100 0 -18 -15 -45 -42 -77 -50 -59 -118 -178 -97 -170 8 3 149 61 313 128 l299 122 256 -12 c248 -12 258 -11 338 9 105 27 125 27 192 -6 55 -28 58 -28 261 -29 l205 0 90 -34 c74 -28 109 -35 199 -40 106 -6 109 -6 137 -38 31 -34 37 -71 19 -117 -7 -19 -5 -54 9 -128 11 -56 25 -136 32 -177 16 -96 28 -119 79 -150 26 -16 52 -44 71 -78 21 -38 40 -58 64 -68 45 -18 69 -18 62 1 -8 19 -1 22 72 34 51 8 74 7 135 -9 40 -10 89 -25 110 -34 33 -14 36 -18 26 -36 -6 -11 -19 -20 -28 -20 -24 0 -64 -29 -57 -41 4 -5 24 -9 45 -9 29 0 48 -8 73 -30 19 -16 46 -34 61 -40 15 -5 35 -23 44 -40 23 -40 34 -43 84 -20 31 14 47 16 61 9 12 -7 23 -7 32 1 7 6 24 8 37 5 18 -5 28 1 46 25 58 78 131 52 216 -75 30 -46 34 -103 11 -179 -8 -27 -15 -63 -15 -80 0 -31 5 -41 65 -126 24 -35 30 -55 33 -110 4 -62 7 -71 38 -101 32 -31 37 -33 102 -31 54 2 74 -1 93 -16 13 -10 38 -22 54 -26 62 -15 81 -61 50 -116 -8 -14 -14 -35 -15 -47 0 -13 -5 -23 -10 -23 -6 0 -16 -12 -22 -27 -6 -16 -33 -49 -60 -74 -53 -51 -61 -81 -30 -120 21 -25 76 -29 129 -8 15 6 70 21 122 35 89 22 96 23 128 7 61 -28 99 -73 112 -130 12 -48 11 -58 -10 -107 -19 -47 -20 -59 -10 -84 7 -16 27 -36 46 -45 24 -12 37 -26 43 -49 6 -24 22 -42 58 -65 59 -40 72 -66 79 -175 8 -125 7 -139 -12 -160 -10 -11 -18 -34 -19 -51 -1 -17 -11 -38 -22 -47 -11 -9 -23 -27 -27 -41 -4 -13 -27 -42 -52 -65 -39 -34 -45 -44 -40 -66 4 -15 22 -36 43 -48 19 -13 46 -39 58 -59 33 -52 54 -66 97 -65 22 1 39 -2 39 -7 0 -18 53 -69 72 -69 11 0 33 -14 49 -31 23 -24 40 -32 85 -38 35 -5 60 -14 66 -24 11 -21 46 -26 203 -31 103 -2 144 -8 199 -26 64 -22 74 -23 151 -12 102 15 133 9 185 -35 22 -19 46 -33 53 -30 6 2 23 0 37 -6 30 -12 91 -10 127 4 16 6 30 6 37 0 7 -6 45 -7 89 -4 l77 6 19 51 19 51 53 1 c83 1 88 2 114 29 18 17 25 35 25 62 1 21 9 56 20 78 24 50 24 56 3 100 -21 45 -10 68 38 75 32 5 37 10 69 80 12 26 64 24 98 -4 42 -36 59 -33 72 12 8 33 18 42 62 64 29 14 67 29 85 32 17 4 37 14 44 23 7 8 23 19 36 24 27 10 29 29 7 72 -11 20 -16 52 -15 87 2 63 -13 83 -84 117 -21 10 -42 27 -45 38 -14 52 -25 60 -87 57 -47 -2 -64 1 -85 17 -19 15 -41 21 -78 21 -56 0 -79 16 -112 78 l-17 32 -88 -2 c-70 -1 -96 -6 -128 -24 -22 -13 -67 -27 -100 -33 -33 -5 -98 -17 -145 -25 -47 -9 -106 -16 -132 -16 -59 0 -146 32 -201 74 -39 30 -42 35 -43 82 -1 48 1 52 33 69 31 17 33 21 33 72 0 73 24 98 86 88 24 -3 44 -2 44 2 0 5 -16 25 -36 44 -41 39 -64 78 -64 109 0 11 17 39 39 63 41 45 41 54 5 102 -31 41 -33 69 -7 97 11 12 23 32 25 43 2 11 18 29 36 40 23 14 35 32 43 63 13 48 36 66 74 56 15 -4 32 -1 41 7 13 11 19 8 39 -17 19 -24 25 -26 30 -13 3 9 2 34 -3 56 -7 29 -6 49 4 71 10 26 20 32 58 37 26 4 64 3 85 -3 38 -9 41 -8 85 33 25 23 46 49 46 59 0 25 -45 66 -72 66 -13 0 -41 9 -63 20 -22 11 -54 20 -72 20 -18 0 -33 5 -33 10 0 6 -18 30 -40 53 -66 73 -68 85 -19 204 11 28 11 39 -4 81 -14 37 -15 55 -7 76 16 42 12 84 -9 104 -10 9 -30 27 -44 39 -13 13 -27 35 -30 51 -4 18 -19 37 -44 52 -20 14 -44 39 -53 55 -8 17 -28 51 -43 77 -24 40 -28 56 -25 100 l3 52 -78 26 c-130 45 -173 102 -192 260 -10 77 -28 115 -85 181 -27 31 -55 69 -62 84 -12 28 -86 71 -163 95 -72 23 -98 57 -150 204 -22 61 -40 90 -76 127 -34 33 -52 61 -60 93 -6 25 -16 50 -23 55 -6 5 -51 11 -101 13 -71 2 -100 8 -135 27 -47 25 -167 69 -212 78 -32 6 -52 -20 -67 -87 -15 -70 -64 -97 -117 -67 -12 7 -49 42 -82 79 -47 51 -62 76 -67 110 -6 37 -21 57 -106 143 -107 109 -141 168 -143 246 -1 43 2 50 44 87 25 23 66 52 92 67 43 24 49 25 93 13 45 -12 48 -12 66 11 27 32 24 92 -7 169 -30 76 -28 103 17 180 41 73 93 98 168 80 65 -15 75 -6 72 67 -2 63 8 86 58 135 27 26 44 59 67 125 17 50 37 104 45 122 12 30 11 34 -10 57 -17 18 -21 29 -14 38 6 7 13 25 17 41 3 15 11 27 17 27 6 0 7 5 4 10 -3 6 -22 10 -40 10 -28 0 -37 6 -50 30 -25 48 -95 40 -95 -11 0 -27 -3 -29 -39 -29 -54 0 -171 37 -201 64 -50 45 -74 56 -126 56 -35 0 -59 -6 -75 -19 -40 -31 -89 -40 -224 -43 -104 -1 -132 -5 -142 -17 -11 -14 -15 -14 -40 -1 -26 15 -28 21 -31 85 -2 38 -8 75 -14 82 -6 8 -33 13 -67 13 -75 0 -97 14 -149 88 -24 34 -47 62 -50 61 -4 0 -21 -19 -37 -42z"/>
 <path d="M1255 3769 c-74 -21 -64 -21 -455 -3 l-135 7 -322 -132 c-177 -72 -327 -131 -333 -131 -7 0 -10 -559 -10 -1755 l0 -1755 2908 0 c2538 1 2905 2 2888 15 -11 8 -29 12 -41 9 -15 -4 -34 5 -63 30 -57 47 -70 50 -168 36 -78 -11 -89 -10 -156 11 -57 17 -108 23 -230 28 -141 5 -159 8 -180 27 -14 13 -42 24 -73 27 -38 4 -55 11 -74 34 -13 15 -40 33 -60 38 -23 7 -43 22 -56 42 -11 18 -25 30 -32 28 -29 -10 -84 17 -109 55 -14 21 -48 57 -75 80 -70 59 -64 106 18 149 12 6 25 25 28 43 4 18 18 41 32 51 19 15 23 25 18 48 -4 18 -2 29 4 29 6 0 18 14 27 32 13 25 14 38 6 62 -6 17 -11 59 -11 94 0 68 -15 109 -46 126 -54 30 -74 49 -80 77 -5 20 -20 38 -46 55 -22 14 -44 35 -49 48 -9 25 -1 77 19 114 16 30 5 105 -21 137 -11 14 -40 37 -64 51 l-45 27 -62 -18 c-34 -10 -91 -26 -126 -36 -83 -25 -135 -25 -161 1 -44 44 -35 110 21 148 43 29 120 172 116 217 -2 26 -7 31 -43 40 -22 6 -48 18 -58 28 -14 13 -34 17 -93 17 -74 0 -76 1 -114 39 -37 37 -39 42 -39 100 0 69 -7 87 -56 145 -46 54 -50 87 -24 196 l21 92 -22 41 c-39 76 -102 137 -141 137 -10 0 -34 -18 -55 -41 -26 -28 -43 -39 -57 -35 -10 3 -28 0 -38 -5 -14 -7 -24 -7 -34 2 -12 10 -24 8 -60 -10 -42 -21 -46 -22 -69 -7 -13 9 -29 25 -35 36 -6 11 -27 29 -48 39 -20 11 -45 29 -54 40 -13 15 -30 21 -57 21 -23 0 -48 8 -62 18 l-22 19 39 26 c21 15 44 27 51 27 50 0 -61 47 -152 64 -16 3 -52 2 -80 -2 -42 -6 -51 -11 -53 -31 -3 -21 -7 -23 -44 -18 -49 7 -86 32 -113 77 -22 36 -54 69 -108 112 -32 25 -36 36 -51 120 -9 51 -23 127 -31 168 -18 89 -19 118 -10 185 6 42 4 54 -13 75 -18 22 -29 25 -128 31 -90 5 -124 12 -194 39 l-85 33 -210 1 c-207 1 -211 1 -269 29 -68 31 -96 32 -191 6z"/>
 <path d="M6910 720 c0 -5 -11 -12 -25 -16 -14 -3 -30 -14 -35 -24 -5 -10 -26 -21 -47 -25 -21 -4 -59 -18 -85 -32 -40 -22 -48 -31 -53 -64 -6 -33 -10 -39 -32 -39 -15 0 -41 11 -59 25 -18 14 -44 25 -58 25 -21 0 -26 -6 -32 -35 -7 -39 -14 -45 -64 -61 -39 -11 -42 -25 -19 -81 12 -29 11 -37 -9 -78 -12 -25 -22 -59 -22 -75 0 -76 -45 -112 -142 -114 -58 0 -59 -1 -69 -36 -18 -61 -27 -66 -116 -73 -51 -4 -85 -3 -88 4 -4 5 -16 7 -28 3 -12 -4 -40 -11 -62 -15 -22 -3 206 -7 508 -8 l547 -1 0 365 c0 201 -2 365 -5 365 -3 0 -5 -4 -5 -10z"/>
 </g>

</svg>